<mxfile host="app.diagrams.net" modified="2023-12-19T09:39:37.348Z" agent="Mozilla/5.0 (X11; Linux x86_64; rv:109.0) Gecko/20100101 Firefox/115.0" etag="Lv-Q3vr1Kw2SBqhNDIAO" version="22.1.11" type="device">
  <diagram name="PÃ¡gina-1" id="bzDgIhWpQ3_GC7hR01qC">
    <mxGraphModel dx="1748" dy="796" grid="1" gridSize="10" guides="1" tooltips="1" connect="1" arrows="1" fold="1" page="1" pageScale="1" pageWidth="1169" pageHeight="827" background="#b6eeb8" math="0" shadow="0">
      <root>
        <mxCell id="0" />
        <mxCell id="1" parent="0" />
        <mxCell id="HxGoHIgsecdyIiLknhFk-1" value="&lt;font style=&quot;font-size: 13px;&quot;&gt;&lt;b style=&quot;font-size: 25px;&quot;&gt;&lt;i&gt;Diagrama 2: Personal de sala&lt;br&gt;&lt;/i&gt;&lt;/b&gt;&lt;/font&gt;" style="rounded=1;whiteSpace=wrap;html=1;" parent="1" vertex="1">
          <mxGeometry x="240" y="80" width="360" height="40" as="geometry" />
        </mxCell>
        <mxCell id="HxGoHIgsecdyIiLknhFk-9" style="edgeStyle=orthogonalEdgeStyle;rounded=0;orthogonalLoop=1;jettySize=auto;html=1;exitX=0.5;exitY=1;exitDx=0;exitDy=0;" parent="1" source="HxGoHIgsecdyIiLknhFk-2" target="HxGoHIgsecdyIiLknhFk-3" edge="1">
          <mxGeometry relative="1" as="geometry" />
        </mxCell>
        <mxCell id="HxGoHIgsecdyIiLknhFk-10" style="edgeStyle=orthogonalEdgeStyle;rounded=0;orthogonalLoop=1;jettySize=auto;html=1;exitX=1;exitY=0.5;exitDx=0;exitDy=0;entryX=0.5;entryY=0;entryDx=0;entryDy=0;" parent="1" source="HxGoHIgsecdyIiLknhFk-2" target="HxGoHIgsecdyIiLknhFk-4" edge="1">
          <mxGeometry relative="1" as="geometry" />
        </mxCell>
        <mxCell id="HxGoHIgsecdyIiLknhFk-14" style="edgeStyle=orthogonalEdgeStyle;rounded=0;orthogonalLoop=1;jettySize=auto;html=1;exitX=0;exitY=0.5;exitDx=0;exitDy=0;entryX=0.5;entryY=0;entryDx=0;entryDy=0;" parent="1" source="HxGoHIgsecdyIiLknhFk-2" target="HxGoHIgsecdyIiLknhFk-5" edge="1">
          <mxGeometry relative="1" as="geometry" />
        </mxCell>
        <mxCell id="HxGoHIgsecdyIiLknhFk-2" value="Camareros" style="ellipse;whiteSpace=wrap;html=1;aspect=fixed;" parent="1" vertex="1">
          <mxGeometry x="360" y="240" width="120" height="120" as="geometry" />
        </mxCell>
        <mxCell id="HxGoHIgsecdyIiLknhFk-3" value="Sala y terraza" style="rounded=0;whiteSpace=wrap;html=1;" parent="1" vertex="1">
          <mxGeometry x="360" y="440" width="120" height="40" as="geometry" />
        </mxCell>
        <mxCell id="HxGoHIgsecdyIiLknhFk-4" value="Limpieza restaurante" style="rounded=0;whiteSpace=wrap;html=1;" parent="1" vertex="1">
          <mxGeometry x="560" y="440" width="120" height="40" as="geometry" />
        </mxCell>
        <mxCell id="HxGoHIgsecdyIiLknhFk-5" value="&lt;div&gt;Comandas clientes&lt;/div&gt;" style="rounded=0;whiteSpace=wrap;html=1;" parent="1" vertex="1">
          <mxGeometry x="160" y="440" width="120" height="40" as="geometry" />
        </mxCell>
        <mxCell id="HxGoHIgsecdyIiLknhFk-11" value="&lt;font style=&quot;font-size: 10px;&quot;&gt;Atender&lt;/font&gt;" style="text;html=1;align=center;verticalAlign=middle;resizable=0;points=[];autosize=1;strokeColor=none;fillColor=none;" parent="1" vertex="1">
          <mxGeometry x="410" y="388" width="60" height="30" as="geometry" />
        </mxCell>
        <mxCell id="HxGoHIgsecdyIiLknhFk-13" value="&lt;font style=&quot;font-size: 10px;&quot;&gt;Anotar&lt;/font&gt;" style="text;html=1;align=center;verticalAlign=middle;resizable=0;points=[];autosize=1;strokeColor=none;fillColor=none;" parent="1" vertex="1">
          <mxGeometry x="220" y="388" width="50" height="30" as="geometry" />
        </mxCell>
        <mxCell id="HxGoHIgsecdyIiLknhFk-15" value="&lt;font style=&quot;font-size: 10px;&quot;&gt;Realizar&lt;/font&gt;" style="text;html=1;align=center;verticalAlign=middle;resizable=0;points=[];autosize=1;strokeColor=none;fillColor=none;" parent="1" vertex="1">
          <mxGeometry x="610" y="388" width="60" height="30" as="geometry" />
        </mxCell>
        <mxCell id="HxGoHIgsecdyIiLknhFk-20" style="edgeStyle=orthogonalEdgeStyle;rounded=0;orthogonalLoop=1;jettySize=auto;html=1;exitX=0.5;exitY=1;exitDx=0;exitDy=0;entryX=0.5;entryY=0;entryDx=0;entryDy=0;" parent="1" source="HxGoHIgsecdyIiLknhFk-19" target="HxGoHIgsecdyIiLknhFk-2" edge="1">
          <mxGeometry relative="1" as="geometry" />
        </mxCell>
        <mxCell id="HxGoHIgsecdyIiLknhFk-19" value="Personal de sala" style="rounded=1;whiteSpace=wrap;html=1;" parent="1" vertex="1">
          <mxGeometry x="360" y="160" width="120" height="40" as="geometry" />
        </mxCell>
        <mxCell id="HxGoHIgsecdyIiLknhFk-21" value="2.1" style="text;html=1;align=center;verticalAlign=middle;resizable=0;points=[];autosize=1;strokeColor=none;fillColor=none;" parent="1" vertex="1">
          <mxGeometry x="400" y="240" width="40" height="30" as="geometry" />
        </mxCell>
      </root>
    </mxGraphModel>
  </diagram>
</mxfile>
